<svg width="30" height="30" viewBox="0 0 30 30" fill="none" xmlns="http://www.w3.org/2000/svg">
<path d="M17.8977 2.49734H17.8977C13.9623 2.49734 11.9945 2.49734 10.423 3.04903C7.89642 3.93594 5.90352 5.81161 4.96117 8.18953C4.375 9.66866 4.375 11.5206 4.375 15.2246L25.625 14.9973V9.77006C25.625 7.65351 25.625 6.59524 25.29 5.75002C24.7516 4.39121 23.6128 3.3194 22.169 2.81259C21.271 2.49734 20.1466 2.49734 17.8977 2.49734Z" fill="#8200DB" fill-opacity="0.2"/>
<path d="M4.81247 8.16999C4.31023 9.43733 4.23831 10.9784 4.22802 13.7235C4.64833 12.6804 6.60746 10.6028 11.1013 10.6028C11.4781 10.6028 12.4664 10.2237 12.4152 8.16999C12.3942 6.30027 13.0808 2.58807 15.9715 2.48021C13.1814 2.49252 11.5892 2.5679 10.2742 3.0295C7.74772 3.91641 5.75481 5.79208 4.81247 8.16999Z" fill="white"/>
<path d="M27.5 15L2.5 15" stroke="#8200DB" stroke-width="2" stroke-linecap="round" stroke-linejoin="round"/>
<path d="M4.375 15.2246C4.375 11.5206 4.375 9.66866 4.96117 8.18953C5.90352 5.81161 7.89642 3.93594 10.423 3.04903C11.9945 2.49734 13.9623 2.49734 17.8977 2.49734C20.1466 2.49734 21.271 2.49734 22.169 2.81259C23.6128 3.3194 24.7516 4.39121 25.29 5.75001C25.625 6.59524 25.625 7.65351 25.625 9.77006L25.625 14.9973" stroke="#8200DB" stroke-width="2" stroke-linejoin="round"/>
<path d="M4.375 15C4.375 12.6988 6.24048 10.8333 8.54167 10.8333C9.3739 10.8333 10.355 10.9792 11.1642 10.7623C11.8831 10.5697 12.4447 10.0081 12.6373 9.28921C12.8542 8.48005 12.7083 7.4989 12.7083 6.66667C12.7083 4.36548 14.5738 2.5 16.875 2.5" stroke="#8200DB" stroke-width="2" stroke-linecap="round" stroke-linejoin="round"/>
<path d="M7.5 18.75L7.5 21.25M12.5 18.75V27.5M17.5 18.75V22.5M22.5 18.75V25" stroke="#8200DB" stroke-width="2" stroke-linecap="round" stroke-linejoin="round"/>
</svg>
