<svg width="30" height="30" viewBox="0 0 30 30" fill="none" xmlns="http://www.w3.org/2000/svg">
<path d="M20 18.75C20 13.9175 16.0825 10 11.25 10C6.41751 10 2.5 13.9175 2.5 18.75C2.5 23.5825 6.41751 27.5 11.25 27.5C16.0825 27.5 20 23.5825 20 18.75Z" fill="white"/>
<path d="M22.0042 3.44311C23.2615 2.18563 25.2998 2.18563 26.5571 3.44311C27.8143 4.70059 27.8143 6.73936 26.5571 7.99684C26.4107 8.14325 26.2537 8.27261 26.0886 8.38493C25.2925 8.92655 24.3202 9.18503 23.519 9.71917L22.0042 10.7291L24.1265 14.0647C24.7486 15.0425 24.6083 16.3213 23.7889 17.1408C23.3061 17.6236 22.5235 17.6236 22.0407 17.1408L12.8621 7.96035C12.3793 7.47751 12.3793 6.69467 12.8621 6.21184C13.6814 5.39231 14.9599 5.25194 15.9375 5.87417L19.2725 7.99684L20.2822 6.48175C20.8163 5.68041 21.0747 4.70794 21.6162 3.91164C21.7285 3.74652 21.8578 3.58952 22.0042 3.44311Z" fill="#00A63E" fill-opacity="0.2"/>
<path d="M22.0042 10.7291L23.519 9.71917C24.3202 9.18503 25.2925 8.92655 26.0886 8.38493C26.2537 8.27261 26.4107 8.14325 26.5571 7.99684C27.8143 6.73936 27.8143 4.70059 26.5571 3.44311C25.2998 2.18563 23.2615 2.18563 22.0042 3.44311C21.8578 3.58952 21.7285 3.74652 21.6162 3.91164C21.0747 4.70794 20.8163 5.68041 20.2822 6.48175L19.2725 7.99684M22.0042 10.7291L19.2725 7.99684M22.0042 10.7291L24.1265 14.0647C24.7486 15.0425 24.6083 16.3213 23.7889 17.1408C23.3061 17.6236 22.5235 17.6236 22.0407 17.1408L12.8621 7.96035C12.3793 7.47751 12.3793 6.69467 12.8621 6.21184C13.6814 5.39231 14.9599 5.25194 15.9375 5.87417L19.2725 7.99684" stroke="#00A63E" stroke-width="2"/>
<path d="M20 21.1179C18.9016 24.8086 15.4826 27.5 11.435 27.5C6.50034 27.5 2.5 23.4997 2.5 18.565C2.5 14.5174 5.19137 11.0984 8.88215 10" stroke="#00A63E" stroke-width="2" stroke-linecap="round"/>
<path d="M8.75 19.5833C8.75 19.5833 9.53125 19.5833 10.3125 21.25C10.3125 21.25 12.7941 17.0833 15 16.25" stroke="#00A63E" stroke-width="2" stroke-linecap="round" stroke-linejoin="round"/>
</svg>
